HIERARCHY
ROOT Joint1
{
	OFFSET 0.000000 0.000000 0.000000
	CHANNELS 6 Xposition Yposition Zposition Xrotation Yrotation Zrotation
	JOINT Joint2
	{
		OFFSET -0.000000 0.000000 1.456275
		CHANNELS 6 Xposition Yposition Zposition Xrotation Yrotation Zrotation
		JOINT Joint3
		{
			OFFSET -0.000000 0.000002 1.471446
			CHANNELS 6 Xposition Yposition Zposition Xrotation Yrotation Zrotation
			JOINT Joint4
			{
				OFFSET 0.625745 0.000000 0.917755
				CHANNELS 6 Xposition Yposition Zposition Xrotation Yrotation Zrotation
				JOINT Joint5
				{
					OFFSET -0.629534 0.000001 0.940221
					CHANNELS 6 Xposition Yposition Zposition Xrotation Yrotation Zrotation
					JOINT Joint6
					{
						OFFSET -0.000001 0.113772 1.960660
						CHANNELS 6 Xposition Yposition Zposition Xrotation Yrotation Zrotation
						JOINT Joint7
						{
							OFFSET -0.669733 -0.113771 0.388340
							CHANNELS 6 Xposition Yposition Zposition Xrotation Yrotation Zrotation
							End Site
							{
								OFFSET 0.005509 0.005509 0.438980
							}
						}
					}
				}
			}
		}
	}
}
MOTION
Frames: 22
Frame Time: 0.041667
0.000000 0.000000 0.000000 -0.000000 1.019410 118.709166 -0.000000 0.000000 1.456275 -0.000000 64.946268 0.000005 -0.000000 0.000002 1.471446 -0.000009 -1.133456 142.468320 0.625745 0.000001 0.917755 -0.000006 42.485044 -0.000000 -0.629533 0.000001 0.940221 -0.000006 1.709736 138.877362 -0.000001 0.113772 1.960660 -88.303889 57.327881 -0.000004 -0.669733 -0.113771 0.388340 -0.260996 3.464036 109.082786 
0.000000 0.000000 0.000000 -0.000000 1.019410 118.568368 -0.000000 0.000000 1.456275 -0.000002 64.815907 0.000002 -0.000000 0.000002 1.471446 -0.000012 -1.133457 142.299328 0.625744 0.000000 0.917755 -0.000000 42.594791 -0.000002 -0.629534 0.000001 0.940220 0.000000 1.709735 138.712645 -0.000001 0.113772 1.960661 -88.303889 57.366595 -0.000002 -0.669733 -0.113771 0.388340 -0.261486 3.464274 109.113474 
0.000000 0.000000 0.000000 -0.000000 1.019410 118.346155 -0.000000 0.000000 1.456275 0.000005 64.610120 0.000004 -0.000001 0.000002 1.471445 -0.000010 -1.133459 142.032609 0.625745 0.000000 0.917755 -0.000001 42.768012 -0.000002 -0.629533 0.000001 0.940221 -0.000001 1.709736 138.452647 -0.000001 0.113772 1.960660 -88.303889 57.427698 -0.000001 -0.669733 -0.113770 0.388340 -0.262261 3.464648 109.161914 
0.000000 0.000000 0.000000 -0.000000 1.019410 118.052662 -0.000000 0.000000 1.456275 -0.000002 64.338367 0.000000 -0.000001 0.000002 1.471446 -0.000010 -1.133457 141.680349 0.625744 0.000000 0.917755 -0.000006 42.996765 0.000001 -0.629534 0.000001 0.940221 0.000000 1.709735 138.109280 -0.000001 0.113772 1.960660 -88.303889 57.508396 -0.000005 -0.669733 -0.113771 0.388340 -0.263283 3.465143 109.225879 
0.000000 0.000000 0.000000 -0.000000 1.019410 117.698093 -0.000000 0.000000 1.456275 -0.000000 64.010040 0.000000 -0.000000 0.000002 1.471446 -0.000011 -1.133456 141.254773 0.625745 0.000000 0.917755 -0.000000 43.273155 0.000003 -0.629533 0.000001 0.940221 -0.000003 1.709736 137.694469 -0.000001 0.113772 1.960661 -88.303889 57.605897 0.000002 -0.669733 -0.113772 0.388340 -0.264520 3.465738 109.303162 
0.000000 0.000000 0.000000 -0.000000 1.019410 117.292598 -0.000000 0.000000 1.456275 0.000000 63.634564 0.000001 -0.000000 0.000002 1.471446 -0.000012 -1.133458 140.768081 0.625744 0.000000 0.917755 0.000002 43.589212 0.000003 -0.629534 0.000001 0.940221 -0.000004 1.709736 137.220058 -0.000001 0.113772 1.960660 -88.303889 57.717393 -0.000005 -0.669733 -0.113771 0.388341 -0.265935 3.466416 109.391545 
0.000000 0.000000 0.000000 -0.000000 1.019410 116.846368 -0.000000 0.000000 1.456275 -0.000004 63.221372 0.000002 -0.000001 0.000002 1.471446 -0.000010 -1.133457 140.232485 0.625745 0.000001 0.917755 -0.000005 43.937050 -0.000001 -0.629534 0.000001 0.940220 -0.000001 1.709735 136.697985 -0.000001 0.113772 1.960661 -88.303889 57.840091 0.000001 -0.669733 -0.113772 0.388340 -0.267494 3.467159 109.488813 
0.000000 0.000000 0.000000 -0.000000 1.019410 116.369580 -0.000000 0.000000 1.456275 0.000000 62.779855 -0.000002 -0.000001 0.000002 1.471446 -0.000010 -1.133460 139.660184 0.625744 0.000001 0.917755 -0.000006 44.308708 -0.000001 -0.629534 0.000001 0.940221 -0.000003 1.709736 136.140150 -0.000001 0.113772 1.960660 -88.303889 57.971210 -0.000001 -0.669734 -0.113771 0.388340 -0.269160 3.467953 109.592735 
0.000000 0.000000 0.000000 -0.000000 1.019410 115.872356 -0.000000 0.000000 1.456275 0.000003 62.319452 -0.000000 -0.000000 0.000002 1.471446 -0.000011 -1.133458 139.063416 0.625745 0.000001 0.917755 -0.000006 44.696273 -0.000001 -0.629534 0.000001 0.940221 -0.000006 1.709736 135.558437 -0.000001 0.113772 1.960660 -88.303896 58.107923 -0.000003 -0.669733 -0.113771 0.388340 -0.270900 3.468775 109.701123 
0.000000 0.000000 0.000000 -0.000000 1.019410 115.364928 -0.000000 0.000000 1.456275 0.000003 61.849576 -0.000004 -0.000000 0.000002 1.471446 -0.000008 -1.133461 138.454355 0.625745 0.000000 0.917755 0.000003 45.091802 0.000002 -0.629533 0.000001 0.940221 -0.000001 1.709736 134.964770 -0.000001 0.113772 1.960661 -88.303889 58.247450 -0.000009 -0.669733 -0.113771 0.388340 -0.272677 3.469611 109.811718 
0.000000 0.000000 0.000000 -0.000000 1.019410 114.848962 -0.000000 0.000000 1.456275 -0.000002 61.371804 0.000000 -0.000000 0.000002 1.471446 -0.000012 -1.133456 137.835062 0.625745 0.000001 0.917755 -0.000002 45.493981 0.000000 -0.629534 0.000001 0.940221 -0.000000 1.709736 134.361118 -0.000001 0.113772 1.960661 -88.303889 58.389327 -0.000004 -0.669733 -0.113771 0.388340 -0.274486 3.470457 109.924183 
0.000000 0.000000 0.000000 -0.000000 1.019410 114.292281 -0.000000 0.000000 1.456275 -0.000002 60.856337 -0.000002 -0.000000 0.000002 1.471446 -0.000009 -1.133455 137.166905 0.625745 0.000001 0.917755 -0.000004 45.927906 -0.000000 -0.629534 0.000001 0.940221 -0.000005 1.709736 133.709832 -0.000001 0.113772 1.960660 -88.303889 58.542398 -0.000001 -0.669734 -0.113771 0.388340 -0.276440 3.471366 110.045529 
0.000000 0.000000 0.000000 -0.000000 1.019410 113.654259 -0.000000 0.000000 1.456275 -0.000002 60.265525 -0.000001 -0.000000 0.000002 1.471446 -0.000008 -1.133457 136.401077 0.625745 0.000001 0.917755 -0.000004 46.425233 0.000002 -0.629534 0.000001 0.940221 -0.000005 1.709736 132.963361 -0.000001 0.113772 1.960660 -88.303889 58.717832 -0.000003 -0.669733 -0.113771 0.388340 -0.278679 3.472405 110.184598 
0.000000 0.000000 0.000000 -0.000000 1.019410 112.894216 -0.000000 -0.000000 1.456275 0.000001 59.561743 0.000002 -0.000000 0.000002 1.471446 -0.000009 -1.133455 135.488837 0.625744 0.000000 0.917755 -0.000009 47.017670 0.000000 -0.629534 0.000001 0.940221 -0.000007 1.709735 132.074152 -0.000001 0.113772 1.960660 -88.303889 58.926822 0.000003 -0.669733 -0.113771 0.388340 -0.281353 3.473633 110.350264 
0.000000 0.000000 0.000000 -0.000000 1.019410 111.971505 -0.000000 0.000000 1.456275 0.000005 58.707334 -0.000000 -0.000000 0.000002 1.471446 -0.000012 -1.133455 134.381349 0.625745 0.000000 0.917755 0.000007 47.736902 0.000002 -0.629534 0.000001 0.940221 -0.000004 1.709736 130.994627 -0.000001 0.113772 1.960660 -88.303896 59.180543 -0.000003 -0.669733 -0.113771 0.388340 -0.284602 3.475117 110.551379 
0.000000 0.000000 0.000000 -0.000000 1.019410 110.873532 -0.000000 0.000000 1.456275 -0.000001 57.690633 0.000004 -0.000000 0.000002 1.471446 -0.000008 -1.133455 133.063491 0.625745 0.000000 0.917755 0.000003 48.592746 0.000004 -0.629533 0.000001 0.940221 -0.000003 1.709736 129.710046 -0.000000 0.113772 1.960661 -88.303882 59.482451 0.000005 -0.669734 -0.113770 0.388340 -0.288478 3.476863 110.790702 
0.000000 0.000000 0.000000 -0.000000 1.019410 109.699853 -0.000000 0.000000 1.456275 0.000003 56.603830 0.000001 -0.000000 0.000002 1.471446 -0.000010 -1.133460 131.654765 0.625745 0.000000 0.917755 0.000002 49.507602 0.000000 -0.629533 0.000001 0.940221 -0.000002 1.709736 128.336905 -0.000001 0.113772 1.960660 -88.303889 59.805184 -0.000001 -0.669733 -0.113771 0.388340 -0.292626 3.478716 111.046527 
0.000000 0.000000 0.000000 -0.000000 1.019410 108.578076 -0.000000 0.000000 1.456275 0.000003 55.565092 0.000002 -0.000000 0.000002 1.471446 -0.000009 -1.133457 130.308343 0.625745 0.000000 0.917755 0.000002 50.382002 0.000001 -0.629533 0.000001 0.940221 -0.000005 1.709736 127.024484 -0.000001 0.113772 1.960661 -88.303889 60.113649 -0.000004 -0.669733 -0.113770 0.388340 -0.296598 3.480469 111.291048 
0.000000 0.000000 0.000000 -0.000000 1.019410 107.575971 -0.000000 0.000000 1.456275 0.000002 54.637166 -0.000001 -0.000000 0.000002 1.471445 -0.000008 -1.133453 129.105561 0.625745 0.000001 0.917755 0.000003 51.163130 0.000003 -0.629533 0.000001 0.940221 -0.000006 1.709736 125.852068 -0.000001 0.113772 1.960660 -88.303889 60.389193 -0.000005 -0.669733 -0.113770 0.388339 -0.300157 3.482016 111.509484 
0.000000 0.000000 0.000000 -0.000000 1.019410 106.521971 -0.000000 0.000000 1.456275 -0.000002 53.661173 0.000001 -0.000000 0.000002 1.471446 -0.000008 -1.133452 127.840487 0.625745 0.000000 0.917755 0.000004 51.984693 0.000001 -0.629534 0.000001 0.940221 -0.000007 1.709735 124.618932 -0.000001 0.113772 1.960659 -88.303896 60.679011 0.000005 -0.669733 -0.113770 0.388340 -0.303897 3.483627 111.739224 
0.000000 0.000000 0.000000 -0.000000 1.019410 105.184654 -0.000000 -0.000000 1.456275 -0.000001 52.422846 0.000001 -0.000000 0.000002 1.471446 -0.000007 -1.133451 126.235351 0.625745 0.000000 0.917755 0.000010 53.027109 0.000001 -0.629534 0.000001 0.940221 -0.000009 1.709735 123.054341 -0.000001 0.113772 1.960660 -88.303896 61.046742 -0.000005 -0.669733 -0.113771 0.388340 -0.308657 3.485662 112.030716 
0.000000 0.000000 0.000000 -0.000000 1.019410 103.464710 -0.000000 0.000000 1.456275 -0.000001 50.830210 -0.000001 -0.000000 0.000002 1.471446 -0.000007 -1.133455 124.170968 0.625745 0.000000 0.917755 -0.000000 54.367759 0.000006 -0.629534 0.000001 0.940221 -0.000006 1.709734 121.042113 -0.000000 0.113772 1.960661 -88.303889 61.519678 -0.000013 -0.669733 -0.113772 0.388340 -0.314799 3.488234 112.405612 
